<svg width="25" height="61" viewBox="0 0 25 61" fill="none" xmlns="http://www.w3.org/2000/svg">
<mask id="path-1-outside-1_7_126" maskUnits="userSpaceOnUse" x="0" y="5" width="22" height="51" fill="black">
<rect fill="white" y="5" width="22" height="51"/>
<path d="M2.19675 17.456V7.28H19.9248V54H8.53275V17.456H2.19675Z"/>
</mask>
<path d="M2.19675 17.456H0.19675V19.456H2.19675V17.456ZM2.19675 7.28V5.28H0.19675V7.28H2.19675ZM19.9248 7.28H21.9248V5.28H19.9248V7.28ZM19.9248 54V56H21.9248V54H19.9248ZM8.53275 54H6.53275V56H8.53275V54ZM8.53275 17.456H10.5328V15.456H8.53275V17.456ZM4.19675 17.456V7.28H0.19675V17.456H4.19675ZM2.19675 9.28H19.9248V5.28H2.19675V9.28ZM17.9248 7.28V54H21.9248V7.28H17.9248ZM19.9248 52H8.53275V56H19.9248V52ZM10.5328 54V17.456H6.53275V54H10.5328ZM8.53275 15.456H2.19675V19.456H8.53275V15.456Z" fill="#FBBB1E" mask="url(#path-1-outside-1_7_126)"/>
</svg>
