<svg width="43" height="69" viewBox="0 0 43 69" fill="none" xmlns="http://www.w3.org/2000/svg">
<mask id="path-1-outside-1_7_127" maskUnits="userSpaceOnUse" x="3" y="4" width="37" height="52" fill="black">
<rect fill="white" x="3" y="4" width="37" height="52"/>
<path d="M5.71475 45.232C7.16542 44.08 7.82675 43.5467 7.69875 43.632C11.8801 40.176 15.1654 37.3387 17.5548 35.12C19.9868 32.9013 22.0348 30.576 23.6988 28.144C25.3628 25.712 26.1948 23.344 26.1948 21.04C26.1948 19.2907 25.7894 17.9253 24.9788 16.944C24.1681 15.9627 22.9521 15.472 21.3308 15.472C19.7094 15.472 18.4294 16.0907 17.4908 17.328C16.5948 18.5227 16.1468 20.2293 16.1468 22.448H5.58675C5.67208 18.8213 6.44008 15.792 7.89075 13.36C9.38408 10.928 11.3254 9.136 13.7148 7.984C16.1468 6.832 18.8348 6.256 21.7788 6.256C26.8561 6.256 30.6748 7.55733 33.2348 10.16C35.8374 12.7627 37.1388 16.1547 37.1388 20.336C37.1388 24.9013 35.5814 29.1467 32.4668 33.072C29.3521 36.9547 25.3841 40.752 20.5628 44.464H37.8428V53.36H5.71475V45.232Z"/>
</mask>
<path d="M5.71475 45.232L4.47099 43.6658L3.71475 44.2663V45.232H5.71475ZM7.69875 43.632L6.42458 42.0904L8.80815 45.2961L7.69875 43.632ZM17.5548 35.12L16.2068 33.6425L16.2003 33.6484L16.1938 33.6544L17.5548 35.12ZM24.9788 16.944L23.4368 18.2178L23.4368 18.2178L24.9788 16.944ZM17.4908 17.328L15.8973 16.1192L15.8908 16.128L17.4908 17.328ZM16.1468 22.448V24.448H18.1468V22.448H16.1468ZM5.58675 22.448L3.5873 22.401L3.53914 24.448H5.58675V22.448ZM7.89075 13.36L6.18641 12.3135L6.17969 12.3244L6.17311 12.3354L7.89075 13.36ZM13.7148 7.984L12.8586 6.17648L12.8462 6.18246L13.7148 7.984ZM33.2348 10.16L31.8089 11.5625L31.8147 11.5684L31.8205 11.5742L33.2348 10.16ZM32.4668 33.072L34.0268 34.3235L34.0335 34.3151L32.4668 33.072ZM20.5628 44.464L19.3427 42.8793L14.6866 46.464H20.5628V44.464ZM37.8428 44.464H39.8428V42.464H37.8428V44.464ZM37.8428 53.36V55.36H39.8428V53.36H37.8428ZM5.71475 53.36H3.71475V55.36H5.71475V53.36ZM6.95851 46.7982C7.68432 46.2218 8.21733 45.7965 8.55425 45.5248C8.71946 45.3916 8.8495 45.2857 8.93313 45.2154C8.94711 45.2037 9.04136 45.1258 9.12396 45.0432C9.14067 45.0265 9.16974 44.9969 9.20395 44.9586C9.22641 44.9335 9.30604 44.8443 9.38916 44.7168C9.42694 44.6589 9.51839 44.5139 9.59298 44.3096C9.63785 44.1867 9.85864 43.5782 9.56364 42.8618C9.17492 41.9178 8.31591 41.6726 7.90916 41.6327C7.54724 41.5972 7.26844 41.6716 7.18726 41.6937C6.98405 41.7491 6.83594 41.8257 6.80832 41.8397C6.75315 41.8676 6.71038 41.8924 6.68803 41.9057C6.64203 41.933 6.60579 41.9569 6.58935 41.9679L8.80815 45.2961C8.79971 45.3017 8.76992 45.3216 8.72884 45.3459C8.70895 45.3577 8.66825 45.3814 8.61478 45.4085C8.58884 45.4216 8.44203 45.4976 8.23974 45.5528C8.15902 45.5748 7.88058 45.6491 7.51892 45.6136C7.11244 45.5738 6.2536 45.3287 5.86496 44.3849C5.57002 43.6686 5.79079 43.0604 5.83554 42.9378C5.91001 42.7339 6.00125 42.5892 6.03871 42.5318C6.12121 42.4053 6.19983 42.3174 6.2209 42.2938C6.25371 42.257 6.281 42.2293 6.29554 42.2148C6.3608 42.1495 6.41306 42.1083 6.36037 42.1526C6.31066 42.1943 6.20871 42.2777 6.04325 42.4112C5.71884 42.6728 5.19585 43.0902 4.47099 43.6658L6.95851 46.7982ZM8.97292 45.1736C13.1673 41.7068 16.4858 38.8418 18.9157 36.5856L16.1938 33.6544C13.845 35.8355 10.5929 38.6452 6.42458 42.0904L8.97292 45.1736ZM18.9027 36.5975C21.4356 34.2868 23.5888 31.8465 25.3494 29.2734L22.0481 27.0146C20.4807 29.3054 18.5379 31.5158 16.2068 33.6425L18.9027 36.5975ZM25.3494 29.2734C27.1777 26.6012 28.1948 23.8462 28.1948 21.04H24.1948C24.1948 22.8418 23.5478 24.8228 22.0481 27.0146L25.3494 29.2734ZM28.1948 21.04C28.1948 18.9988 27.7216 17.1239 26.5207 15.6702L23.4368 18.2178C23.8573 18.7267 24.1948 19.5825 24.1948 21.04H28.1948ZM26.5207 15.6702C25.2302 14.108 23.3717 13.472 21.3308 13.472V17.472C22.5324 17.472 23.106 17.8173 23.4368 18.2178L26.5207 15.6702ZM21.3308 13.472C19.1159 13.472 17.2332 14.3584 15.8974 16.1192L19.0841 18.5368C19.6257 17.8229 20.3029 17.472 21.3308 17.472V13.472ZM15.8908 16.128C14.6362 17.8008 14.1468 19.9971 14.1468 22.448H18.1468C18.1468 20.4615 18.5533 19.2446 19.0908 18.528L15.8908 16.128ZM16.1468 20.448H5.58675V24.448H16.1468V20.448ZM7.5862 22.495C7.66565 19.1183 8.37727 16.4485 9.60839 14.3846L6.17311 12.3354C4.5029 15.1355 3.67852 18.5244 3.5873 22.401L7.5862 22.495ZM9.59509 14.4065C10.9038 12.2752 12.5655 10.7584 14.5833 9.78553L12.8462 6.18246C10.0853 7.51359 7.86436 9.58081 6.18641 12.3135L9.59509 14.4065ZM14.5709 9.79147C16.7109 8.77778 19.1027 8.256 21.7788 8.256V4.256C18.5668 4.256 15.5826 4.88621 12.8586 6.17652L14.5709 9.79147ZM21.7788 8.256C26.5336 8.256 29.7521 9.47142 31.8089 11.5625L34.6606 8.75752C31.5974 5.64324 27.1785 4.256 21.7788 4.256V8.256ZM31.8205 11.5742C33.996 13.7497 35.1388 16.6066 35.1388 20.336H39.1388C39.1388 15.7028 37.6788 11.7756 34.649 8.74578L31.8205 11.5742ZM35.1388 20.336C35.1388 24.4052 33.7633 28.2204 30.9 31.8288L34.0335 34.3151C37.3996 30.0729 39.1388 25.3975 39.1388 20.336H35.1388ZM30.9067 31.8205C27.9108 35.5551 24.0646 39.2438 19.3427 42.8793L21.7829 46.0487C26.7036 42.2602 30.7933 38.3542 34.0268 34.3235L30.9067 31.8205ZM20.5628 46.464H37.8428V42.464H20.5628V46.464ZM35.8428 44.464V53.36H39.8428V44.464H35.8428ZM37.8428 51.36H5.71475V55.36H37.8428V51.36ZM7.71475 53.36V45.232H3.71475V53.36H7.71475Z" fill="#FBBB1E" mask="url(#path-1-outside-1_7_127)"/>
</svg>
