<svg width="59" height="61" viewBox="0 0 59 61" fill="none" xmlns="http://www.w3.org/2000/svg">
<mask id="path-1-outside-1_7_129" maskUnits="userSpaceOnUse" x="8" y="5" width="43" height="51" fill="black">
<rect fill="white" x="8" y="5" width="43" height="51"/>
<path d="M10.9798 45.68V36.848L31.2038 7.92H43.4278V36.208H48.6758V45.68H43.4278V54H32.4838V45.68H10.9798ZM33.2518 19.952L22.4998 36.208H33.2518V19.952Z"/>
</mask>
<path d="M10.9798 45.68H8.97975V47.68H10.9798V45.68ZM10.9798 36.848L9.34061 35.702L8.97975 36.2182V36.848H10.9798ZM31.2038 7.92V5.92H30.1617L29.5646 6.77405L31.2038 7.92ZM43.4278 7.92H45.4278V5.92H43.4278V7.92ZM43.4278 36.208H41.4278V38.208H43.4278V36.208ZM48.6758 36.208H50.6758V34.208H48.6758V36.208ZM48.6758 45.68V47.68H50.6758V45.68H48.6758ZM43.4278 45.68V43.68H41.4278V45.68H43.4278ZM43.4278 54V56H45.4278V54H43.4278ZM32.4838 54H30.4838V56H32.4838V54ZM32.4838 45.68H34.4838V43.68H32.4838V45.68ZM33.2518 19.952H35.2518V13.3028L31.5836 18.8487L33.2518 19.952ZM22.4998 36.208L20.8316 35.1047L18.779 38.208H22.4998V36.208ZM33.2518 36.208V38.208H35.2518V36.208H33.2518ZM12.9798 45.68V36.848H8.97975V45.68H12.9798ZM12.6189 37.994L32.8429 9.06595L29.5646 6.77405L9.34061 35.702L12.6189 37.994ZM31.2038 9.92H43.4278V5.92H31.2038V9.92ZM41.4278 7.92V36.208H45.4278V7.92H41.4278ZM43.4278 38.208H48.6758V34.208H43.4278V38.208ZM46.6758 36.208V45.68H50.6758V36.208H46.6758ZM48.6758 43.68H43.4278V47.68H48.6758V43.68ZM41.4278 45.68V54H45.4278V45.68H41.4278ZM43.4278 52H32.4838V56H43.4278V52ZM34.4838 54V45.68H30.4838V54H34.4838ZM32.4838 43.68H10.9798V47.68H32.4838V43.68ZM31.5836 18.8487L20.8316 35.1047L24.1679 37.3113L34.9199 21.0553L31.5836 18.8487ZM22.4998 38.208H33.2518V34.208H22.4998V38.208ZM35.2518 36.208V19.952H31.2518V36.208H35.2518Z" fill="#FBBB1E" mask="url(#path-1-outside-1_7_129)"/>
</svg>
