<svg width="45" height="61" viewBox="0 0 45 61" fill="none" xmlns="http://www.w3.org/2000/svg">
<mask id="path-1-outside-1_7_128" maskUnits="userSpaceOnUse" x="3" y="4" width="38" height="53" fill="black">
<rect fill="white" x="3" y="4" width="38" height="53"/>
<path d="M6.389 20.464C6.55967 15.8987 8.053 12.3787 10.869 9.904C13.685 7.42933 17.5037 6.192 22.325 6.192C25.525 6.192 28.2557 6.74666 30.517 7.856C32.821 8.96533 34.549 10.48 35.701 12.4C36.8957 14.32 37.493 16.4747 37.493 18.864C37.493 21.68 36.789 23.984 35.381 25.776C33.973 27.5253 32.3303 28.72 30.453 29.36V29.616C32.885 30.4267 34.805 31.7707 36.213 33.648C37.621 35.5253 38.325 37.936 38.325 40.88C38.325 43.5253 37.7063 45.872 36.469 47.92C35.2743 49.9253 33.5037 51.504 31.157 52.656C28.853 53.808 26.101 54.384 22.901 54.384C17.781 54.384 13.685 53.1253 10.613 50.608C7.58367 48.0907 5.98367 44.2933 5.813 39.216H16.437C16.4797 41.0933 17.013 42.5867 18.037 43.696C19.061 44.7627 20.5543 45.296 22.517 45.296C24.181 45.296 25.461 44.8267 26.357 43.888C27.2957 42.9067 27.765 41.6267 27.765 40.048C27.765 38 27.1037 36.528 25.781 35.632C24.501 34.6933 22.4317 34.224 19.573 34.224H17.525V25.328H19.573C21.749 25.328 23.4983 24.9653 24.821 24.24C26.1863 23.472 26.869 22.128 26.869 20.208C26.869 18.672 26.4423 17.4773 25.589 16.624C24.7357 15.7707 23.5623 15.344 22.069 15.344C20.4477 15.344 19.2317 15.8347 18.421 16.816C17.653 17.7973 17.205 19.0133 17.077 20.464H6.389Z"/>
</mask>
<path d="M6.389 20.464L4.3904 20.3893L4.31284 22.464H6.389V20.464ZM10.869 9.904L12.1892 11.4063L12.1892 11.4063L10.869 9.904ZM30.517 7.856L29.6362 9.65158L29.6427 9.65481L29.6494 9.658L30.517 7.856ZM35.701 12.4L33.986 13.429L33.9943 13.4429L34.0029 13.4566L35.701 12.4ZM35.381 25.776L36.939 27.03L36.9464 27.0209L36.9536 27.0116L35.381 25.776ZM30.453 29.36L29.8077 27.467L28.453 27.9288V29.36H30.453ZM30.453 29.616H28.453V31.0575L29.8205 31.5134L30.453 29.616ZM36.213 33.648L37.813 32.448L36.213 33.648ZM36.469 47.92L34.7571 46.8857L34.7508 46.8964L36.469 47.92ZM31.157 52.656L30.2757 50.8607L30.2691 50.8639L30.2626 50.8671L31.157 52.656ZM10.613 50.608L9.33473 52.1463L9.34536 52.155L10.613 50.608ZM5.813 39.216V37.216H3.74464L3.81413 39.2832L5.813 39.216ZM16.437 39.216L18.4365 39.1706L18.3921 37.216H16.437V39.216ZM18.037 43.696L16.5674 45.0526L16.5807 45.0669L16.5942 45.0811L18.037 43.696ZM26.357 43.888L24.9117 42.5056L24.9103 42.507L26.357 43.888ZM25.781 35.632L24.5983 37.2448L24.6284 37.2669L24.6593 37.2878L25.781 35.632ZM17.525 34.224H15.525V36.224H17.525V34.224ZM17.525 25.328V23.328H15.525V25.328H17.525ZM24.821 24.24L25.7827 25.9936L25.7921 25.9884L25.8015 25.9831L24.821 24.24ZM25.589 16.624L27.0032 15.2098L27.0032 15.2098L25.589 16.624ZM18.421 16.816L16.8791 15.5422L16.8623 15.5626L16.846 15.5834L18.421 16.816ZM17.077 20.464V22.464H18.9083L19.0693 20.6398L17.077 20.464ZM8.3876 20.5387C8.54257 16.3933 9.87359 13.4413 12.1892 11.4063L9.54877 8.40167C6.23241 11.316 4.57676 15.404 4.3904 20.3893L8.3876 20.5387ZM12.1892 11.4063C14.5457 9.33553 17.8469 8.192 22.325 8.192V4.192C17.1604 4.192 12.8243 5.52314 9.54877 8.40167L12.1892 11.4063ZM22.325 8.192C25.2998 8.192 27.7129 8.70807 29.6362 9.65158L31.3979 6.06042C28.7985 4.78526 25.7502 4.192 22.325 4.192V8.192ZM29.6494 9.658C31.6529 10.6227 33.0624 11.8897 33.986 13.429L37.416 11.371C36.0356 9.07033 33.9891 7.30798 31.3846 6.054L29.6494 9.658ZM34.0029 13.4566C34.9889 15.0412 35.493 16.826 35.493 18.864H39.493C39.493 16.1233 38.8025 13.5988 37.3991 11.3434L34.0029 13.4566ZM35.493 18.864C35.493 21.3401 34.8793 23.1773 33.8084 24.5404L36.9536 27.0116C38.6987 24.7907 39.493 22.0199 39.493 18.864H35.493ZM33.823 24.522C32.6203 26.0162 31.2806 26.9648 29.8077 27.467L31.0983 31.253C33.3801 30.4752 35.3257 29.0344 36.939 27.03L33.823 24.522ZM28.453 29.36V29.616H32.453V29.36H28.453ZM29.8205 31.5134C31.904 32.2078 33.4717 33.3263 34.613 34.848L37.813 32.448C36.1383 30.2151 33.866 28.6455 31.0855 27.7186L29.8205 31.5134ZM34.613 34.848C35.7015 36.2993 36.325 38.2571 36.325 40.88H40.325C40.325 37.6149 39.5405 34.7513 37.813 32.448L34.613 34.848ZM36.325 40.88C36.325 43.2004 35.7865 45.1821 34.7572 46.8858L38.1808 48.9542C39.6262 46.5619 40.325 43.8503 40.325 40.88H36.325ZM34.7508 46.8964C33.7777 48.5299 32.3176 49.8582 30.2757 50.8607L32.0383 54.4513C34.6897 53.1498 36.771 51.3208 38.1872 48.9436L34.7508 46.8964ZM30.2626 50.8671C28.2954 51.8507 25.8641 52.384 22.901 52.384V56.384C26.3379 56.384 29.4106 55.7653 32.0514 54.4449L30.2626 50.8671ZM22.901 52.384C18.1074 52.384 14.5026 51.2096 11.8806 49.061L9.34536 52.155C12.8674 55.0411 17.4546 56.384 22.901 56.384V52.384ZM11.8912 49.0698C9.42056 47.0167 7.96928 43.8316 7.81187 39.1488L3.81413 39.2832C3.99806 44.7551 5.74678 49.1646 9.33476 52.1462L11.8912 49.0698ZM5.813 41.216H16.437V37.216H5.813V41.216ZM14.4375 39.2614C14.4884 41.5025 15.138 43.504 16.5674 45.0526L19.5066 42.3394C18.888 41.6693 18.4709 40.6842 18.4365 39.1706L14.4375 39.2614ZM16.5942 45.0811C18.1071 46.6569 20.1954 47.296 22.517 47.296V43.296C20.9133 43.296 20.0149 42.8684 19.4798 42.3109L16.5942 45.0811ZM22.517 47.296C24.5648 47.296 26.431 46.707 27.8037 45.269L24.9103 42.507C24.491 42.9463 23.7972 43.296 22.517 43.296V47.296ZM27.8023 45.2704C29.1546 43.8567 29.765 42.0519 29.765 40.048H25.765C25.765 41.2015 25.4368 41.9567 24.9117 42.5056L27.8023 45.2704ZM29.765 40.048C29.765 37.5461 28.928 35.3481 26.9027 33.9762L24.6593 37.2878C25.2793 37.7079 25.765 38.4539 25.765 40.048H29.765ZM26.9637 34.0192C25.1599 32.6964 22.5582 32.224 19.573 32.224V36.224C22.3051 36.224 23.8421 36.6903 24.5983 37.2448L26.9637 34.0192ZM19.573 32.224H17.525V36.224H19.573V32.224ZM19.525 34.224V25.328H15.525V34.224H19.525ZM17.525 27.328H19.573V23.328H17.525V27.328ZM19.573 27.328C21.946 27.328 24.0635 26.9364 25.7827 25.9936L23.8593 22.4864C22.9332 22.9943 21.552 23.328 19.573 23.328V27.328ZM25.8015 25.9831C27.9479 24.7758 28.869 22.6584 28.869 20.208H24.869C24.869 21.5976 24.4248 22.1682 23.8405 22.4968L25.8015 25.9831ZM28.869 20.208C28.869 18.2935 28.3269 16.5335 27.0032 15.2098L24.1748 18.0382C24.5578 18.4212 24.869 19.0505 24.869 20.208H28.869ZM27.0032 15.2098C25.6899 13.8965 23.9593 13.344 22.069 13.344V17.344C23.1654 17.344 23.7814 17.6448 24.1748 18.0382L27.0032 15.2098ZM22.069 13.344C20.028 13.344 18.1696 13.9801 16.8791 15.5422L19.9629 18.0898C20.2938 17.6893 20.8673 17.344 22.069 17.344V13.344ZM16.846 15.5834C15.8017 16.9177 15.2409 18.5186 15.0847 20.2882L19.0693 20.6398C19.1691 19.508 19.5043 18.6769 19.996 18.0486L16.846 15.5834ZM17.077 18.464H6.389V22.464H17.077V18.464Z" fill="#FBBB1E" mask="url(#path-1-outside-1_7_128)"/>
</svg>
